<svg width="895" height="343" viewBox="0 0 895 343" fill="none" xmlns="http://www.w3.org/2000/svg">
<path d="M48.2727 109.182C38.8182 109.182 30.5227 106.932 23.3864 102.432C16.2954 97.9319 10.75 91.6364 6.74999 83.5455C2.79545 75.4546 0.818176 66 0.818176 55.1818C0.818176 44.2728 2.79545 34.75 6.74999 26.6137C10.75 18.4773 16.2954 12.1591 23.3864 7.65911C30.5227 3.15911 38.8182 0.909119 48.2727 0.909119C57.7273 0.909119 66 3.15911 73.0909 7.65911C80.2273 12.1591 85.7727 18.4773 89.7273 26.6137C93.7273 34.75 95.7273 44.2728 95.7273 55.1818C95.7273 66 93.7273 75.4546 89.7273 83.5455C85.7727 91.6364 80.2273 97.9319 73.0909 102.432C66 106.932 57.7273 109.182 48.2727 109.182ZM48.2727 94.7273C55.4545 94.7273 61.3636 92.8864 66 89.2046C70.6364 85.5228 74.0682 80.6819 76.2954 74.6819C78.5227 68.6819 79.6364 62.1818 79.6364 55.1818C79.6364 48.1818 78.5227 41.6591 76.2954 35.6137C74.0682 29.5682 70.6364 24.6818 66 20.9546C61.3636 17.2273 55.4545 15.3637 48.2727 15.3637C41.0909 15.3637 35.1818 17.2273 30.5455 20.9546C25.9091 24.6818 22.4773 29.5682 20.25 35.6137C18.0227 41.6591 16.9091 48.1818 16.9091 55.1818C16.9091 62.1818 18.0227 68.6819 20.25 74.6819C22.4773 80.6819 25.9091 85.5228 30.5455 89.2046C35.1818 92.8864 41.0909 94.7273 48.2727 94.7273Z" fill="black"/>
<path d="M120.29 146.273V2.27275H135.835V18.9091H137.744C138.926 17.0909 140.562 14.7728 142.653 11.9546C144.79 9.09094 147.835 6.54548 151.79 4.31821C155.79 2.04548 161.199 0.909119 168.017 0.909119C176.835 0.909119 184.608 3.11366 191.335 7.52275C198.062 11.9318 203.312 18.1818 207.085 26.2727C210.858 34.3637 212.744 43.9091 212.744 54.9091C212.744 66 210.858 75.6137 207.085 83.75C203.312 91.8409 198.085 98.1137 191.403 102.568C184.722 106.977 177.017 109.182 168.29 109.182C161.562 109.182 156.176 108.068 152.131 105.841C148.085 103.568 144.972 101 142.79 98.1364C140.608 95.2273 138.926 92.8182 137.744 90.9091H136.381V146.273H120.29ZM136.108 54.6364C136.108 62.5455 137.267 69.5228 139.585 75.5682C141.903 81.5682 145.29 86.2728 149.744 89.6819C154.199 93.0455 159.653 94.7273 166.108 94.7273C172.835 94.7273 178.449 92.9546 182.949 89.4091C187.494 85.8182 190.903 81 193.176 74.9546C195.494 68.8637 196.653 62.0909 196.653 54.6364C196.653 47.2728 195.517 40.6364 193.244 34.7273C191.017 28.7728 187.631 24.0682 183.085 20.6137C178.585 17.1137 172.926 15.3637 166.108 15.3637C159.562 15.3637 154.062 17.0228 149.608 20.3409C145.153 23.6137 141.79 28.2046 139.517 34.1137C137.244 39.9773 136.108 46.8182 136.108 54.6364Z" fill="black"/>
<path d="M281.199 109.182C271.108 109.182 262.403 106.955 255.085 102.5C247.813 98 242.199 91.7273 238.244 83.6819C234.335 75.5909 232.381 66.1818 232.381 55.4546C232.381 44.7273 234.335 35.2728 238.244 27.0909C242.199 18.8637 247.699 12.4546 254.744 7.86366C261.835 3.2273 270.108 0.909119 279.562 0.909119C285.017 0.909119 290.403 1.81821 295.722 3.63638C301.04 5.45457 305.881 8.40911 310.244 12.5C314.608 16.5455 318.085 21.9091 320.676 28.5909C323.267 35.2728 324.562 43.5 324.562 53.2727V60.0909H243.835V46.1818H308.199C308.199 40.2728 307.017 35 304.653 30.3637C302.335 25.7273 299.017 22.0682 294.699 19.3864C290.426 16.7046 285.381 15.3637 279.562 15.3637C273.153 15.3637 267.608 16.9546 262.926 20.1364C258.29 23.2728 254.722 27.3637 252.222 32.4091C249.722 37.4546 248.472 42.8637 248.472 48.6364V57.9091C248.472 65.8182 249.835 72.5228 252.562 78.0228C255.335 83.4773 259.176 87.6364 264.085 90.5C268.994 93.3182 274.699 94.7273 281.199 94.7273C285.426 94.7273 289.244 94.1364 292.653 92.9546C296.108 91.7273 299.085 89.9091 301.585 87.5C304.085 85.0455 306.017 82 307.381 78.3637L322.926 82.7273C321.29 88 318.54 92.6364 314.676 96.6364C310.812 100.591 306.04 103.682 300.358 105.909C294.676 108.091 288.29 109.182 281.199 109.182Z" fill="black"/>
<path d="M365.131 44V107H349.04V2.27275H364.585V18.6364H365.949C368.403 13.3182 372.131 9.04548 377.131 5.81821C382.131 2.54548 388.585 0.909119 396.494 0.909119C403.585 0.909119 409.79 2.36366 415.108 5.27275C420.426 8.13639 424.562 12.5 427.517 18.3637C430.472 24.1818 431.949 31.5455 431.949 40.4546V107H415.858V41.5455C415.858 33.3182 413.722 26.9091 409.449 22.3182C405.176 17.6818 399.312 15.3637 391.858 15.3637C386.722 15.3637 382.131 16.4773 378.085 18.7046C374.085 20.9318 370.926 24.1818 368.608 28.4546C366.29 32.7273 365.131 37.9091 365.131 44Z" fill="black"/>
<path d="M1.63636 301V280.273L47.4545 225.455V224.909H3.27272V196.273H91.9091V219.182L50.1818 271.818V272.364H93.5454V301H1.63636Z" fill="black"/>
<path d="M143.54 302.636C136.858 302.636 130.949 301.546 125.812 299.364C120.722 297.136 116.722 293.773 113.812 289.273C110.903 284.773 109.449 279.046 109.449 272.091C109.449 266.364 110.426 261.477 112.381 257.432C114.335 253.341 117.062 250 120.562 247.409C124.062 244.818 128.131 242.841 132.767 241.477C137.449 240.114 142.494 239.227 147.903 238.818C153.767 238.364 158.472 237.818 162.017 237.182C165.608 236.5 168.199 235.568 169.79 234.386C171.381 233.159 172.176 231.545 172.176 229.545V229.273C172.176 226.546 171.131 224.455 169.04 223C166.949 221.545 164.267 220.818 160.994 220.818C157.403 220.818 154.472 221.614 152.199 223.205C149.972 224.75 148.631 227.136 148.176 230.364H113.54C113.994 224 116.017 218.136 119.608 212.773C123.244 207.364 128.54 203.045 135.494 199.818C142.449 196.545 151.131 194.909 161.54 194.909C169.04 194.909 175.767 195.795 181.722 197.568C187.676 199.295 192.744 201.727 196.926 204.864C201.108 207.955 204.29 211.591 206.472 215.773C208.699 219.909 209.812 224.409 209.812 229.273V301H174.631V286.273H173.812C171.722 290.182 169.176 293.341 166.176 295.75C163.222 298.159 159.835 299.909 156.017 301C152.244 302.091 148.085 302.636 143.54 302.636ZM155.812 278.909C158.676 278.909 161.358 278.318 163.858 277.136C166.403 275.955 168.472 274.25 170.062 272.023C171.653 269.796 172.449 267.091 172.449 263.909V255.182C171.449 255.591 170.381 255.977 169.244 256.341C168.153 256.705 166.972 257.046 165.699 257.364C164.472 257.682 163.153 257.977 161.744 258.25C160.381 258.523 158.949 258.773 157.449 259C154.54 259.455 152.153 260.205 150.29 261.25C148.472 262.25 147.108 263.5 146.199 265C145.335 266.455 144.903 268.091 144.903 269.909C144.903 272.818 145.926 275.046 147.972 276.591C150.017 278.136 152.631 278.909 155.812 278.909Z" fill="black"/>
<path d="M256.977 302.636C250.295 302.636 244.386 301.546 239.25 299.364C234.159 297.136 230.159 293.773 227.25 289.273C224.341 284.773 222.886 279.046 222.886 272.091C222.886 266.364 223.864 261.477 225.818 257.432C227.773 253.341 230.5 250 234 247.409C237.5 244.818 241.568 242.841 246.205 241.477C250.886 240.114 255.932 239.227 261.341 238.818C267.205 238.364 271.909 237.818 275.455 237.182C279.045 236.5 281.636 235.568 283.227 234.386C284.818 233.159 285.614 231.545 285.614 229.545V229.273C285.614 226.546 284.568 224.455 282.477 223C280.386 221.545 277.705 220.818 274.432 220.818C270.841 220.818 267.909 221.614 265.636 223.205C263.409 224.75 262.068 227.136 261.614 230.364H226.977C227.432 224 229.455 218.136 233.045 212.773C236.682 207.364 241.977 203.045 248.932 199.818C255.886 196.545 264.568 194.909 274.977 194.909C282.477 194.909 289.205 195.795 295.159 197.568C301.114 199.295 306.182 201.727 310.364 204.864C314.545 207.955 317.727 211.591 319.909 215.773C322.136 219.909 323.25 224.409 323.25 229.273V301H288.068V286.273H287.25C285.159 290.182 282.614 293.341 279.614 295.75C276.659 298.159 273.273 299.909 269.455 301C265.682 302.091 261.523 302.636 256.977 302.636ZM269.25 278.909C272.114 278.909 274.795 278.318 277.295 277.136C279.841 275.955 281.909 274.25 283.5 272.023C285.091 269.796 285.886 267.091 285.886 263.909V255.182C284.886 255.591 283.818 255.977 282.682 256.341C281.591 256.705 280.409 257.046 279.136 257.364C277.909 257.682 276.591 257.977 275.182 258.25C273.818 258.523 272.386 258.773 270.886 259C267.977 259.455 265.591 260.205 263.727 261.25C261.909 262.25 260.545 263.5 259.636 265C258.773 266.455 258.341 268.091 258.341 269.909C258.341 272.818 259.364 275.046 261.409 276.591C263.455 278.136 266.068 278.909 269.25 278.909Z" fill="black"/>
<path d="M375.051 276.182L375.324 231.455H380.233L405.597 196.273H447.869L405.324 251.091H394.688L375.051 276.182ZM341.233 301V161.364H378.869V301H341.233ZM405.869 301L381.869 259.545L406.415 232.818L448.96 301H405.869Z" fill="black"/>
<path d="M457.125 301V161.364H494.761V214.545H495.307C496.67 211 498.67 207.75 501.307 204.795C503.943 201.795 507.216 199.409 511.125 197.636C515.034 195.818 519.58 194.909 524.761 194.909C531.67 194.909 538.239 196.75 544.466 200.432C550.739 204.114 555.83 209.909 559.739 217.818C563.693 225.727 565.67 236 565.67 248.636C565.67 260.727 563.784 270.75 560.011 278.705C556.284 286.659 551.284 292.591 545.011 296.5C538.784 300.409 531.943 302.364 524.489 302.364C519.58 302.364 515.193 301.568 511.33 299.977C507.511 298.341 504.239 296.136 501.511 293.364C498.83 290.546 496.761 287.364 495.307 283.818H494.489V301H457.125ZM493.943 248.636C493.943 253.727 494.602 258.136 495.92 261.864C497.284 265.546 499.193 268.409 501.648 270.455C504.148 272.455 507.125 273.455 510.58 273.455C514.034 273.455 516.966 272.477 519.375 270.523C521.83 268.523 523.693 265.682 524.966 262C526.284 258.273 526.943 253.818 526.943 248.636C526.943 243.455 526.284 239.023 524.966 235.341C523.693 231.614 521.83 228.773 519.375 226.818C516.966 224.818 514.034 223.818 510.58 223.818C507.125 223.818 504.148 224.818 501.648 226.818C499.193 228.773 497.284 231.614 495.92 235.341C494.602 239.023 493.943 243.455 493.943 248.636Z" fill="black"/>
<path d="M581.42 301V196.273H617.966V216.182H619.057C620.966 208.818 623.989 203.432 628.125 200.023C632.307 196.614 637.193 194.909 642.784 194.909C644.42 194.909 646.034 195.045 647.625 195.318C649.261 195.545 650.83 195.886 652.33 196.341V228.455C650.466 227.818 648.17 227.341 645.443 227.023C642.716 226.705 640.375 226.545 638.42 226.545C634.739 226.545 631.42 227.386 628.466 229.068C625.557 230.705 623.261 233.023 621.58 236.023C619.898 238.977 619.057 242.455 619.057 246.455V301H581.42Z" fill="black"/>
<path d="M732.58 255.182V196.273H770.216V301H734.489V281.091H733.398C731.125 287.773 727.148 293 721.466 296.773C715.784 300.5 709.034 302.364 701.216 302.364C693.898 302.364 687.489 300.682 681.989 297.318C676.534 293.955 672.284 289.318 669.239 283.409C666.239 277.5 664.716 270.727 664.67 263.091V196.273H702.307V255.182C702.352 260.364 703.67 264.432 706.261 267.386C708.898 270.341 712.58 271.818 717.307 271.818C720.443 271.818 723.148 271.159 725.42 269.841C727.739 268.477 729.511 266.568 730.739 264.114C732.011 261.614 732.625 258.636 732.58 255.182Z" fill="black"/>
<path d="M839.812 342.455C829.312 342.455 820.312 340.955 812.812 337.955C805.358 335 799.562 330.909 795.426 325.682C791.335 320.5 789.04 314.545 788.54 307.818H824.812C825.176 310.045 826.085 311.841 827.54 313.205C828.994 314.568 830.858 315.545 833.131 316.136C835.449 316.773 838.04 317.091 840.903 317.091C845.767 317.091 849.79 315.909 852.972 313.545C856.199 311.182 857.812 306.909 857.812 300.727V283H856.722C855.358 286.545 853.267 289.568 850.449 292.068C847.631 294.523 844.244 296.409 840.29 297.727C836.335 299 831.994 299.636 827.267 299.636C819.812 299.636 812.949 297.909 806.676 294.455C800.449 291 795.449 285.523 791.676 278.023C787.949 270.523 786.085 260.727 786.085 248.636C786.085 236 788.04 225.727 791.949 217.818C795.903 209.909 800.994 204.114 807.222 200.432C813.494 196.75 820.085 194.909 826.994 194.909C832.176 194.909 836.722 195.818 840.631 197.636C844.54 199.409 847.812 201.795 850.449 204.795C853.085 207.75 855.085 211 856.449 214.545H857.267V196.273H894.903V300.727C894.903 309.591 892.608 317.114 888.017 323.295C883.472 329.523 877.062 334.273 868.79 337.546C860.517 340.818 850.858 342.455 839.812 342.455ZM841.176 272.909C844.631 272.909 847.585 271.955 850.04 270.045C852.54 268.091 854.449 265.318 855.767 261.727C857.131 258.091 857.812 253.727 857.812 248.636C857.812 243.455 857.131 239.023 855.767 235.341C854.449 231.614 852.54 228.773 850.04 226.818C847.585 224.818 844.631 223.818 841.176 223.818C837.722 223.818 834.767 224.818 832.312 226.818C829.903 228.773 828.04 231.614 826.722 235.341C825.449 239.023 824.812 243.455 824.812 248.636C824.812 253.818 825.449 258.227 826.722 261.864C828.04 265.455 829.903 268.205 832.312 270.114C834.767 271.977 837.722 272.909 841.176 272.909Z" fill="black"/>
</svg>
