<?xml version="1.0" encoding="UTF-8"?><svg id="Layer_1" xmlns="http://www.w3.org/2000/svg" viewBox="0 0 140.8 71.33"><defs><style>.cls-1{fill:#fff;}.cls-1,.cls-2{fill-rule:evenodd;}</style></defs><g><path d="M105.81,30.62c-3.29-.5-6.5,2.63-9,8.34-3.97,9.09-5.37,21.55-5.37,32.37h1.38c0-10.82,1.39-23.28,5.37-32.37,2.14-4.91,4.82-7.91,7.62-8.34Z"/><path class="cls-1" d="M102.38,31.9c-2.45,1.65-4.26,5.14-5.17,7.23-4.08,9.35-5.3,21.64-5.33,31.79h.52c.03-10.26,1.26-22.65,5.4-32.11,.93-2.12,2.47-5.06,4.59-6.91Z"/></g><path d="M123.28,71.33c0-10.97-1.75-26.34-7.25-35.8-5.86-10.08-12.82-7.63-17.52,2.25-4.48,9.42-6.06,22.34-6.06,33.55h1.68c0-8.9,1.12-18.95,3.86-26.88v7.96c.37,.07,.72,.14,1.07,.21v-11.02c.23-1.23,2.8-5.25,3.34-5.94v17.62c.33,.06,.67,.13,1,.2v-18.92c.97-1.01,2.01-1.7,3.06-2.08v22.26c.31,.06,.6,.12,.91,.18v-22.67c.91-.16,1.85,.3,2.8,.65v22.8c.27-.07,.54-.14,.83-.21v-22.59c.9,.49,1.76,1.21,2.59,2.13v21.16c.26,.05,.51,.1,.76,.15v-20.39c.85,1.12,1.64,2.46,2.39,3.98v16.81c.24,.05,.48,.09,.71,.14v-15.4c.35,.85,2.06,5.45,2.2,6.53v9.49c.22,.04,.44,.08,.66,.13v-6.97c1.46,6.55,2.13,13.7,2.13,20.67h.85Z"/><g><path d="M10.31,71.33c.62-20.69,5.87-44.22,18.49-59.34C35,4.56,42.69-.31,51.43,1.15c-10.86,1.8-19.42,12.96-24.4,23l.02-.55c-7.81,13.35-11.5,31.58-11.99,47.74h-4.74Z"/><path class="cls-1" d="M44.63,2.36c-5.98,1.3-11.04,5.58-14.95,10.27-12.71,15.23-17.48,38.64-18.21,57.63h2.49c.6-15.44,4.1-33.49,12.1-47.16l2.24-3.84v.22c3.86-6.59,9.4-13.51,16.33-17.12Z"/></g><path d="M14.51,71.33c0-13.02,1.88-25.2,5.16-35.7,3.18-10.15,7.67-18.4,12.92-24.4C37.43,5.52,42.88,1.92,48.5,.59c5.22-1.23,10.56-.52,15.73,2.2,4.78,2.51,9.04,6.56,12.66,11.56,3.41,4.71,6.34,10.36,8.66,16.54,2.21,5.9,3.97,12.41,5.13,19.24,1.13,6.68,1.77,13.82,1.77,21.2h-1.75c0-5.76-.4-11.36-1.15-16.66-.76-5.38-1.9-10.55-3.33-15.36v10.33c-.48-.1-.95-.2-1.41-.29v-14.3c-.24-.66-.48-1.32-.72-1.97-1.21-3.14-2.57-6.11-4.06-8.83v23.91c-.51-.11-1.04-.22-1.57-.33V21.57c-1.65-2.65-3.44-5.06-5.4-7.17v31.65c-.58-.12-1.13-.24-1.74-.36V12.64c-1.94-1.81-3.92-2.72-6.13-3.9,0,6.05,.01,12.1,.01,18.14v18.14c-.65-.33-1.31-.66-1.96-1.01V7.18c-2.33-1.01-4.63-1.56-6.96-1.71V42.56c-.77-.16-1.54-.32-2.29-.48V5.47c-2.66,.18-5.38,.91-7.93,2.22V40.43c-.89-.19-1.78-.37-2.68-.56V9.18c-2.69,1.77-5.29,4.16-7.76,7.11-.5,.64-1.02,1.3-1.49,2,0,6.56-.01,13.11-.01,19.66-.99-.21-2-.42-3.06-.64v-14.32c-3.46,5.84-6.23,12.97-8.24,21.09-2.07,8.32-3.18,17.55-3.18,27.25h-5.14Z"/><g><polygon class="cls-2" points="140.26 61.12 129.98 61.12 .47 43.41 0 42.88 0 37.66 .51 37.12 35.46 35.23 35.62 35.24 140.4 59.3 140.8 59.82 140.8 60.58 140.26 61.12"/><g><polygon class="cls-1" points="34.58 42.5 .92 42.6 .92 37.84 34.58 36.37 34.58 42.5"/><polygon class="cls-1" points="35.86 36.58 140.28 59.79 140.28 60.45 35.86 42.94 35.86 36.58"/></g></g><polygon class="cls-2" points="35.45 40.9 140.44 60.24 140.24 60.26 35.25 41.66 35.45 40.9"/><polygon class="cls-2" points="35.45 38.66 140.44 59.98 140.42 60.09 35.42 39.5 35.45 38.66"/><g><path d="M124.57,29.13c-3.29-.52-6.51,2.73-9,8.65-3.97,9.42-5.37,22.34-5.37,33.55h1.38c0-11.22,1.39-24.13,5.37-33.55,2.15-5.09,4.82-8.2,7.62-8.65Z"/><path class="cls-1" d="M121.14,30.45c-2.45,1.71-4.26,5.33-5.17,7.5-4.09,9.69-5.3,22.43-5.33,32.95h.52c.03-10.64,1.27-23.48,5.4-33.29,.93-2.2,2.47-5.24,4.59-7.16Z"/></g><path d="M138.68,71.33c0-10.97-1.55-26.34-6.42-35.8-5.19-10.08-11.35-7.63-15.51,2.25-3.97,9.42-5.37,22.34-5.37,33.55h1.49c0-8.9,.99-18.95,3.42-26.88v9.67c.32,.07,.64,.14,.95,.21v-12.73c.21-1.23,2.48-5.25,2.96-5.94v19.33c.29,.07,.6,.13,.89,.2v-20.63c.86-1.01,1.78-1.7,2.71-2.08v23.37c.27,.06,.53,.12,.81,.18v-23.78c.8-.16,1.64,.3,2.48,.65v23.75l.73,.03v-23.76c.79,.49,1.56,1.21,2.29,2.13v22.28c.23,.05,.45,.1,.67,.15v-21.51c.75,1.12,1.45,2.46,2.11,3.98v17.96c.21,.05,.43,.09,.63,.14v-16.54c.31,.85,1.82,5.45,1.95,6.53v10.4c.2,.04,.39,.08,.58,.13v-7.88c1.29,6.55,1.88,13.7,1.88,20.67h.75Z"/><path d="M42.38,71.33c0-13.02,1.66-25.2,4.57-35.7,2.81-10.15,6.79-18.4,11.44-24.4,4.28-5.72,9.11-9.32,14.08-10.64,4.62-1.23,9.35-.52,13.93,2.2,4.24,2.51,8.01,6.56,11.21,11.56,3.02,4.71,5.62,10.36,7.67,16.54,1.96,5.9,3.51,12.41,4.54,19.24,1,6.68,1.57,13.82,1.57,21.2h-1.55c0-5.76-.35-11.36-1.01-16.66-.68-5.38-1.69-10.55-2.95-15.36v12.37c-.43-.1-.84-.2-1.24-.29v-16.34c-.21-.66-.43-1.32-.64-1.97-1.07-3.14-2.28-6.11-3.6-8.83v26.29c-.45-.11-.92-.22-1.39-.33V21.57c-1.46-2.65-3.04-5.06-4.78-7.17V49.2c-.51-.12-1-.24-1.54-.36V12.64c-1.71-1.81-3.47-2.72-5.43-3.9,0,12.09,.01,26.82,.01,38.92-.58-.33-1.16-.15-1.74-.49V7.18c-2.06-1.01-4.1-1.56-6.16-1.71V45.96c-.68-.16-1.36-.32-2.03-.48V5.47c-2.35,.18-4.76,.91-7.02,2.22,0,10.92,.11,25.5,.11,36.41-.79-.19-1.58-.37-2.37-.56,0-10.23-.11-24.13-.11-34.36-2.38,1.77-4.69,4.16-6.87,7.11-.44,.64-.9,1.3-1.32,2,0,6.56,.1,16.78,.1,23.33-.88-.21-1.77-.42-2.71-.64,0-4.77-.11-13.21-.11-17.98-3.06,5.84-5.51,12.97-7.3,21.09-1.83,8.32-2.81,17.55-2.81,27.25h-4.55Z"/><g><path d="M39.05,71.33c0-20.95,4.35-44.78,16.01-60.1C60.79,3.71,68.02-1.22,76.44,.26c-10.36,1.83-18.24,13.13-22.73,23.29v-.56c-7.1,13.52-10.11,31.98-10.11,48.34h-4.55Z"/><path class="cls-1" d="M69.96,1.49c-5.69,1.31-10.42,5.65-14.04,10.4-11.75,15.43-15.65,39.13-15.79,58.36h2.38c.12-15.64,2.96-33.91,10.23-47.76l2.04-3.88v.23c3.51-6.68,8.63-13.69,15.17-17.34Z"/></g></svg>