<?xml version="1.0" encoding="UTF-8"?><svg id="Laag_1" xmlns="http://www.w3.org/2000/svg" viewBox="0 0 503.58 109.56"><defs><style>.cls-1{stroke-width:0px;}</style></defs><path class="cls-1" d="m0,83.16v-16.31L37.07,21.12H.88V5.28h59.73v15.07l-37.95,46.53h38.72v16.28H0Z"/><path class="cls-1" d="m70.51,35.86c3.23-3.08,6.98-5.39,11.27-6.93s8.67-2.31,13.15-2.31,8.52.57,11.71,1.71c3.19,1.14,5.78,2.9,7.76,5.28,1.98,2.38,3.43,5.39,4.34,9.02.92,3.63,1.38,7.94,1.38,12.93v27.61h-16.5v-5.83h-.33c-1.39,2.27-3.5,4.03-6.32,5.28-2.82,1.25-5.89,1.87-9.19,1.87-2.2,0-4.47-.29-6.82-.88-2.35-.59-4.49-1.54-6.44-2.86-1.94-1.32-3.54-3.08-4.79-5.28-1.25-2.2-1.87-4.91-1.87-8.14,0-3.96,1.08-7.15,3.25-9.57,2.16-2.42,4.95-4.29,8.36-5.61,3.41-1.32,7.21-2.2,11.39-2.64,4.18-.44,8.25-.66,12.21-.66v-.88c0-2.71-.95-4.71-2.86-5.99-1.91-1.28-4.25-1.93-7.04-1.93-2.57,0-5.04.55-7.43,1.65-2.38,1.1-4.42,2.42-6.1,3.96l-9.13-9.79Zm33.11,23.43h-2.31c-1.98,0-3.98.09-5.99.27-2.02.18-3.81.53-5.39,1.05-1.58.51-2.88,1.26-3.91,2.25-1.03.99-1.54,2.29-1.54,3.9,0,1.03.24,1.91.71,2.64.48.73,1.08,1.32,1.81,1.76.73.44,1.58.75,2.53.94.95.18,1.87.28,2.75.28,3.67,0,6.47-1.01,8.42-3.03,1.94-2.02,2.92-4.75,2.92-8.19v-1.87Z"/><path class="cls-1" d="m132.77,35.86c3.23-3.08,6.98-5.39,11.27-6.93s8.67-2.31,13.15-2.31,8.52.57,11.71,1.71c3.19,1.14,5.78,2.9,7.76,5.28,1.98,2.38,3.43,5.39,4.34,9.02.92,3.63,1.38,7.94,1.38,12.93v27.61h-16.5v-5.83h-.33c-1.39,2.27-3.5,4.03-6.32,5.28-2.82,1.25-5.89,1.87-9.19,1.87-2.2,0-4.47-.29-6.82-.88-2.35-.59-4.49-1.54-6.44-2.86-1.94-1.32-3.54-3.08-4.79-5.28-1.25-2.2-1.87-4.91-1.87-8.14,0-3.96,1.08-7.15,3.25-9.57,2.16-2.42,4.95-4.29,8.36-5.61,3.41-1.32,7.21-2.2,11.39-2.64,4.18-.44,8.25-.66,12.21-.66v-.88c0-2.71-.95-4.71-2.86-5.99-1.91-1.28-4.25-1.93-7.04-1.93-2.57,0-5.04.55-7.43,1.65-2.38,1.1-4.42,2.42-6.1,3.96l-9.13-9.79Zm33.11,23.43h-2.31c-1.98,0-3.98.09-5.99.27-2.02.18-3.81.53-5.39,1.05-1.58.51-2.88,1.26-3.91,2.25-1.03.99-1.54,2.29-1.54,3.9,0,1.03.24,1.91.71,2.64.48.73,1.08,1.32,1.81,1.76.73.44,1.58.75,2.53.94.95.18,1.87.28,2.75.28,3.67,0,6.47-1.01,8.42-3.03,1.94-2.02,2.92-4.75,2.92-8.19v-1.87Z"/><path class="cls-1" d="m254.65,83.16h-22.33l-17.93-26.29h-.33v26.29h-18.15V0h18.15v50.6h.33l17.49-22.22h21.89l-21.12,24.75,22,30.03Z"/><path class="cls-1" d="m322.96,60.5c0,4.25-.84,7.83-2.53,10.73-1.69,2.9-3.92,5.23-6.71,6.98-2.79,1.76-5.96,3.03-9.51,3.8-3.56.77-7.21,1.15-10.95,1.15h-31.02V5.28h31.02c3.01,0,6.09.31,9.24.94,3.15.62,6.01,1.69,8.58,3.19,2.57,1.5,4.66,3.54,6.27,6.1,1.61,2.57,2.42,5.83,2.42,9.79,0,4.33-1.17,7.9-3.52,10.73-2.35,2.82-5.43,4.86-9.24,6.1v.22c2.2.37,4.27,1.04,6.22,2.04,1.94.99,3.63,2.25,5.06,3.79,1.43,1.54,2.57,3.34,3.41,5.39.84,2.05,1.27,4.36,1.27,6.93Zm-21.34-32.67c0-2.64-1.01-4.56-3.03-5.77-2.02-1.21-5-1.81-8.96-1.81h-9.24v16.06h10.12c3.52,0,6.25-.72,8.2-2.15,1.94-1.43,2.92-3.54,2.92-6.33Zm2.53,30.91c0-3.23-1.21-5.46-3.63-6.71-2.42-1.25-5.65-1.87-9.68-1.87h-10.45v17.82h10.56c1.47,0,2.99-.13,4.56-.38,1.58-.26,3.01-.71,4.29-1.38,1.28-.66,2.33-1.6,3.13-2.81.81-1.21,1.21-2.77,1.21-4.67Z"/><path class="cls-1" d="m369.93,43.23c-.81-.22-1.59-.37-2.36-.44-.77-.07-1.52-.11-2.25-.11-2.42,0-4.46.44-6.1,1.32-1.65.88-2.97,1.94-3.96,3.18-.99,1.24-1.7,2.6-2.14,4.06-.44,1.46-.66,2.74-.66,3.84v28.08h-18.04V28.45h17.38v7.92h.22c1.39-2.8,3.37-5.09,5.94-6.87,2.57-1.77,5.54-2.66,8.91-2.66.73,0,1.45.04,2.14.11.7.07,1.27.18,1.71.33l-.77,15.95Z"/><path class="cls-1" d="m414.04,83.16v-7.59h-.22c-.66,1.25-1.52,2.42-2.58,3.52-1.06,1.1-2.31,2.05-3.74,2.86-1.43.81-3.01,1.47-4.73,1.98-1.72.51-3.54.77-5.45.77-3.67,0-6.77-.66-9.29-1.98s-4.58-3.02-6.16-5.12c-1.58-2.09-2.71-4.47-3.41-7.15-.7-2.68-1.04-5.41-1.04-8.19V28.38h18.15v29.7c0,1.54.11,3.01.33,4.4.22,1.39.64,2.64,1.26,3.74.62,1.1,1.45,1.96,2.48,2.58,1.03.62,2.38.94,4.07.94,3.15,0,5.56-1.17,7.21-3.52,1.65-2.35,2.48-5.1,2.48-8.25v-29.59h18.04v54.78h-17.38Z"/><path class="cls-1" d="m503.58,77.99c0,5.35-.77,10.01-2.31,13.97s-3.7,7.24-6.49,9.85c-2.79,2.6-6.18,4.55-10.17,5.83-4,1.28-8.42,1.92-13.25,1.92s-9.81-.73-14.91-2.2c-5.1-1.47-9.51-3.59-13.25-6.38l9.02-12.87c2.64,2.35,5.56,4.09,8.75,5.22,3.19,1.14,6.32,1.71,9.4,1.71,5.28,0,9.19-1.39,11.72-4.18,2.53-2.79,3.79-6.49,3.79-11.11v-3.3h-.33c-1.69,2.2-3.96,3.96-6.82,5.28-2.86,1.32-6.12,1.98-9.79,1.98-4.18,0-7.88-.75-11.11-2.25-3.23-1.5-5.96-3.54-8.19-6.1-2.24-2.57-3.94-5.56-5.12-8.96-1.17-3.41-1.76-7.02-1.76-10.83s.59-7.44,1.76-10.89c1.17-3.45,2.88-6.49,5.12-9.13,2.24-2.64,4.97-4.75,8.19-6.33,3.23-1.58,6.89-2.36,11-2.36,3.45,0,6.75.7,9.9,2.09,3.15,1.39,5.68,3.56,7.59,6.49h.22v-7.04h17.05v49.61Zm-17.16-22.55c0-1.83-.31-3.59-.94-5.28-.62-1.69-1.52-3.17-2.69-4.46-1.17-1.28-2.57-2.29-4.18-3.02-1.61-.73-3.45-1.1-5.5-1.1s-3.87.37-5.44,1.1c-1.58.73-2.92,1.72-4.02,2.97-1.1,1.25-1.94,2.71-2.53,4.4-.59,1.69-.88,3.48-.88,5.39s.29,3.59.88,5.28c.59,1.69,1.43,3.17,2.53,4.46,1.1,1.28,2.44,2.31,4.02,3.08,1.58.77,3.39,1.15,5.44,1.15s3.91-.38,5.56-1.15,3.04-1.78,4.18-3.03c1.14-1.25,2.02-2.71,2.64-4.4.62-1.69.94-3.48.94-5.39Z"/></svg>